<svg xmlns="http://www.w3.org/2000/svg" viewBox="0 0 128 128" role="img" aria-label="SmartHoreca">
  <defs>
    <linearGradient id="bg" x1="0" y1="0" x2="1" y2="1">
      <stop offset="0" stop-color="#07131d"/>
      <stop offset="1" stop-color="#0a1c24"/>
    </linearGradient>
    <linearGradient id="s" x1="20" y1="18" x2="108" y2="110" gradientUnits="userSpaceOnUse">
      <stop offset="0" stop-color="#00e0ff"/>
      <stop offset="0.42" stop-color="#1a9fff"/>
      <stop offset="0.72" stop-color="#00c99a"/>
      <stop offset="1" stop-color="#61f0a9"/>
    </linearGradient>
    <linearGradient id="leaf" x1="0" y1="0" x2="1" y2="1">
      <stop stop-color="#19c7ff"/>
      <stop offset="1" stop-color="#56f0ad"/>
    </linearGradient>
    <filter id="glow" x="-40%" y="-40%" width="180%" height="180%">
      <feGaussianBlur stdDeviation="2.8" result="b"/>
      <feMerge><feMergeNode in="b"/><feMergeNode in="SourceGraphic"/></feMerge>
    </filter>
  </defs>
  <rect x="2" y="2" width="124" height="124" rx="28" fill="url(#bg)" stroke="#12313c" stroke-width="2"/>
  <path d="M84 28c-7-7-18-11-30-9-17 2-29 12-30 25-1 13 9 20 26 23l18 3c12 2 17 6 16 12-1 7-9 12-20 13-12 1-23-4-31-12" fill="none" stroke="url(#s)" stroke-width="13" stroke-linecap="round" stroke-linejoin="round" filter="url(#glow)"/>
  <path d="M84 26c7-10 18-13 29-9-1 12-7 21-20 24-4-5-7-10-9-15Z" fill="#55e7a8" opacity=".98"/>
  <path d="M17 77c12-3 22 0 29 9-4 10-12 17-24 20-6-8-8-18-5-29Z" fill="#1a9fff" opacity=".95"/>
  <path d="M95 83c8 1 14 5 18 12-5 7-12 11-21 12-3-8-2-16 3-24Z" fill="url(#leaf)" opacity=".94"/>
  <path d="M91 34c6-5 12-8 18-10M24 89c6 0 12 3 17 8M99 91c4 2 7 5 10 9" stroke="#d9fff0" stroke-width="1.5" stroke-linecap="round" opacity=".7"/>
</svg>